PSF_ID_stride2.mot
nRows=15
nColumns=38

name PSF_ID_stride2.mot
datacolumns 38
datarows 15
range 0.5100000000 0.5800000000
endheader
time	pelvis_tilt_moment	pelvis_list_moment	pelvis_rotation_moment	pelvis_tx_force	pelvis_ty_force	pelvis_tz_force	hip_flexion_r_moment	hip_adduction_r_moment	hip_rotation_r_moment	knee_angle_r_moment	ankle_angle_r_moment	subtalar_angle_r_moment	mtp_angle_r_moment	hip_flexion_l_moment	hip_adduction_l_moment	hip_rotation_l_moment	knee_angle_l_moment	ankle_angle_l_moment	subtalar_angle_l_moment	mtp_angle_l_moment	lumbar_extension_moment	lumbar_bending_moment	lumbar_rotation_moment	arm_flex_r_moment	arm_add_r_moment	arm_rot_r_moment	elbow_flex_r_moment	pro_sup_r_moment	wrist_flex_r_moment	wrist_dev_r_moment	arm_flex_l_moment	arm_add_l_moment	arm_rot_l_moment	elbow_flex_l_moment	pro_sup_l_moment	wrist_flex_l_moment	wrist_dev_l_moment
        0.5100000000	       14.1752880832	       -8.1870756915	       40.1811097241	        3.5349901636	      -75.2843708222	      -56.6037810954	      -12.7280079422	       -4.3466882406	        1.1372570693	        1.1508530890	        2.3110660659	       -0.5109975149	        0.1233881523	       -3.8402394603	      -38.6089915268	      -16.6799455560	        3.7186033242	     -190.0183898383	       22.1735796358	       -0.0361409664	       23.6593163487	       10.2826293078	       41.9085122120	        7.2837525384	        5.3692821371	        4.3726155266	        5.0796253838	        0.0317235088	        0.5720833727	       -0.3187470706	       -0.9373731554	       -1.7658011324	       -3.3075121925	        4.7542192803	       -0.2059928041	       -0.2943001172	       -0.4851049626	
        0.5150000000	       16.2708783432	      -16.8920343485	       41.3846172091	       30.6571344332	      -77.3545397336	      -52.0036627912	      -14.7097989341	       -5.0220085399	        1.5503135016	        0.6595339450	        2.3599451731	       -0.5597815527	        0.1226820545	       -4.1795621548	      -28.1008366992	      -18.4254079445	       -2.3966321028	     -176.6915893894	       21.5500145333	       -0.0429472734	       15.0725908057	       11.2171941283	       41.8031265483	        7.1939624687	        4.8891919693	        4.1280078607	        4.5729201372	        0.0367290606	        0.5401618297	       -0.2758199223	       -1.1092400418	       -1.7173451935	       -3.2424768244	        4.1805314611	       -0.1943284735	       -0.3007529591	       -0.4319596225	
        0.5200000000	       16.1699854084	      -14.3756510468	       39.6863312680	       45.0880718151	      -75.7338761810	      -47.8723652122	      -16.7012388375	       -5.2171735076	        1.7471626425	        0.1551862614	        2.4210622023	       -0.6002657523	        0.1239157273	        6.0519024884	      -20.6609949054	      -17.0812295997	       -3.2844446964	     -161.0867738075	       21.4271903535	       -0.0502707887	        9.4972914409	       11.4714061202	       40.3700832432	        6.8696099485	        4.4027428897	        3.8442042006	        4.0993030229	        0.0393703113	        0.5035616272	       -0.2388760392	       -1.2577992585	       -1.6097064492	       -3.0857338711	        3.6619629281	       -0.1807648257	       -0.2967135317	       -0.3829680119	
        0.5250000000	       11.6950610567	       -1.7105732313	       34.1984211985	       42.6229747071	      -65.8380163105	      -47.5621550502	      -18.3690855598	       -4.7274092452	        1.6626720952	       -0.3261155746	        2.4997432234	       -0.6320425243	        0.1271167658	       22.0562016431	      -18.2838781011	      -11.9256036555	        0.4525190646	     -143.3241644562	       21.1485038182	       -0.0573591293	        6.5019875145	       10.5297161285	       38.4918865154	        6.4612732625	        3.9650022248	        3.5614434487	        3.6801069296	        0.0405804107	        0.4670775850	       -0.2085638217	       -1.3834317548	       -1.5085785107	       -2.9064978523	        3.2098485438	       -0.1671116108	       -0.2865907523	       -0.3402479190	
        0.5300000000	        4.3923365337	       11.9791175755	       27.1019330081	       31.5938691745	      -46.3109130627	      -48.9412165731	      -19.4834330973	       -3.8173727952	        1.4306481895	       -0.7458088119	        2.5967005165	       -0.6606501877	        0.1318893607	       36.9778165025	      -19.5378301692	       -5.5957169615	        3.9480312865	     -124.4746662373	       19.9537323737	       -0.0619470916	        5.2390837407	        8.4406028874	       36.4556461585	        6.0470690438	        3.5952398346	        3.3010682498	        3.3268694262	        0.0412367512	        0.4335619111	       -0.1847706897	       -1.4883098487	       -1.4269014846	       -2.7294670583	        2.8190862176	       -0.1545430616	       -0.2744486022	       -0.3040133768	
        0.5350000000	       -2.3226458089	       18.5011753842	       21.5341688480	       14.1918420880	      -20.3517895202	      -51.2530754681	      -20.3253636458	       -2.7467551197	        1.1172533739	       -1.1061215289	        2.7047467136	       -0.6904842789	        0.1375531414	       44.5363376126	      -20.9727839002	       -1.4967224891	        5.3426185318	     -106.2805173909	       17.7311064002	       -0.0636277744	        4.4070016530	        5.2808263455	       34.4413843232	        5.6529996479	        3.2612991065	        3.0571499120	        3.0128883157	        0.0418651787	        0.4024710173	       -0.1643423466	       -1.5947296369	       -1.3495404433	       -2.5558673155	        2.4552851109	       -0.1427849596	       -0.2618934835	       -0.2708728088	
        0.5400000000	       -5.6632398497	       18.1107208878	       19.2532263198	        0.5376418523	        5.4341697486	      -52.2517281936	      -21.0324330218	       -1.8600804876	        0.8728056768	       -1.4002744673	        2.8157811063	       -0.7269261413	        0.1432836797	       45.2400465509	      -20.1043941517	       -0.5615301695	        2.1332951767	      -90.5475302223	       15.1666690493	       -0.0594398515	        3.5890092309	        1.3020065886	       32.5944861235	        5.2961345093	        2.9409124507	        2.8252338276	        2.7227520441	        0.0429524100	        0.3735167676	       -0.1455180899	       -1.7311422998	       -1.2602930299	       -2.3833356410	        2.0922573289	       -0.1316049394	       -0.2499439895	       -0.2384038391	
        0.5450000000	       -3.1340938806	       12.7369562411	       20.6506990709	       -4.2741030290	       21.1190211851	      -52.3006509265	      -22.1174020655	       -1.3254136896	        0.7565938232	       -1.6528422376	        2.9157774783	       -0.7711239905	        0.1481476396	       41.4854076839	      -14.2844856513	       -2.7238720860	       -2.9850430861	      -77.7594053431	       13.3837139448	       -0.0476559611	        2.1589576075	       -2.9910935735	       30.8802599306	        4.9223011790	        2.5766929791	        2.5822469807	        2.4034371731	        0.0449199623	        0.3437693159	       -0.1235317982	       -1.9511135208	       -1.1272066437	       -2.1893711711	        1.6765231132	       -0.1194570921	       -0.2378350786	       -0.2009888793	
        0.5500000000	        3.1017808136	       12.6218176647	       22.9718752282	       -0.7004430966	       16.6090357694	      -51.8911957894	      -23.9712043374	       -0.9381046051	        0.7418425727	       -1.9246348239	        2.9897680904	       -0.8187768876	        0.1513811427	       42.1762422371	       -5.1167860600	       -4.8205753101	       -4.4234122322	      -65.8057767343	       12.3614731009	       -0.0272712388	        0.0758888896	       -7.1440844559	       29.1476750502	        4.4516210678	        2.1311833635	        2.3096238720	        2.0058280323	        0.0479856179	        0.3103673243	       -0.0944568412	       -2.2910563976	       -0.9364528663	       -1.9538783765	        1.1688233944	       -0.1048012108	       -0.2242133891	       -0.1543784489	
        0.5550000000	       10.7614141872	       16.8635350379	       23.3318132377	        8.0302058947	       -4.4665820313	      -49.4265574838	      -26.7145736064	       -0.3021223390	        0.7089676286	       -2.2953222980	        3.0330106281	       -0.8639459508	        0.1526118728	       47.5998080674	        4.6058394771	       -4.7230125929	       -2.6651713974	      -53.2010984589	       11.2842696548	        0.0024941718	       -2.5514578891	      -10.7441059301	       27.2275625306	        3.8217033176	        1.5903956110	        1.9979558671	        1.4984943439	        0.0521990328	        0.2714501390	       -0.0558828032	       -2.7667076876	       -0.6873337561	       -1.6660352886	        0.5513647486	       -0.0866541111	       -0.2079702198	       -0.0964149561	
        0.5600000000	       14.4512533591	       25.8795395530	       22.2843772868	       16.3787969293	      -48.4864779988	      -41.0136348781	      -30.1966138315	        1.0858387527	        0.5775366825	       -2.9037577201	        3.0515394760	       -0.9003594908	        0.1527392404	       56.0643363964	       12.1099440738	       -2.7494658387	        2.2219040446	      -40.6279478603	        9.7807988538	        0.0417515968	       -5.5425428108	      -13.1138371497	       24.9524759258	        2.9842941366	        0.9573454630	        1.6436311259	        0.8655246955	        0.0572661775	        0.2258397678	       -0.0067451730	       -3.3638284753	       -0.3892109006	       -1.3214113320	       -0.1721629872	       -0.0644937747	       -0.1880686470	       -0.0268416911	
        0.5650000000	       15.1327218933	       32.1611436621	       19.1889953072	       21.3702818717	     -108.2304968057	      -21.2546755501	      -34.1037020982	        3.8471515656	        0.2317119711	       -3.9582619602	        3.0583445613	       -0.9273410433	        0.1519424984	       61.3611498746	       17.1153412008	        0.4488252070	        5.7508265575	      -29.3909731152	        7.8045791987	        0.0894447295	       -8.7415978461	      -14.4021807832	       22.2341662187	        1.9382417604	        0.2541603313	        1.2521990168	        0.1207376484	        0.0626632321	        0.1738628689	        0.0515894634	       -4.0395837996	       -0.0578780519	       -0.9269595316	       -0.9729880657	       -0.0387104273	       -0.1641479862	        0.0519631975	
        0.5700000000	       11.4452628135	       28.1267354662	       16.8388730355	       19.6756635291	     -169.2352363665	        7.4236404268	      -38.2057463698	        7.9672829127	       -0.2521809328	       -5.7386318837	        3.0628735892	       -0.9440107878	        0.1512052389	       57.2101064246	       20.0746010970	        2.1816711907	        3.7800127973	      -21.6664674546	        6.0313016712	        0.1424786541	      -12.1137200244	      -13.8317063024	       19.1167315354	        0.7681598162	       -0.4713529165	        0.8404177841	       -0.6723798850	        0.0672752482	        0.1179375135	        0.1137595951	       -4.6991849507	        0.2864052211	       -0.5048876594	       -1.7764676547	       -0.0111472770	       -0.1367387074	        0.1332538361	
        0.5750000000	        5.5969039376	       13.5418968620	       17.0161614106	       16.2602031885	     -225.7878030763	       45.3580460623	      -42.0626007623	       13.4140910305	       -0.7856919228	       -8.5192332707	        3.0798769744	       -0.9594237719	        0.1513773495	       43.0981671359	       25.0343461552	        1.8716960953	       -3.6061507709	      -18.2826970220	        5.6965035595	        0.1983823005	      -15.7762776332	      -11.6740886062	       15.7412567401	       -0.4357432703	       -1.1794871520	        0.4264573961	       -1.4525427140	        0.0700695213	        0.0609102249	        0.1748870325	       -5.2658407685	        0.6317705733	       -0.0776155224	       -2.5164764949	        0.0163190186	       -0.1068626107	        0.2109511413	
        0.5800000000	       -5.3180019892	        1.8206359553	       16.0767975481	        8.7923170705	     -241.0851044262	       63.0716297743	      -44.8005395309	       19.4382456383	       -1.0669671741	      -12.2987558326	        3.1378803647	       -0.9817288336	        0.1530797672	       35.8422878525	       25.7849013581	        2.0075008675	       -6.4988009341	      -12.0816529083	        4.5875647470	        0.2528579210	      -19.8318699507	       -7.6659037219	       12.4330744952	       -1.5311461533	       -1.8123685882	        0.0426963527	       -2.1386535337	        0.0706413081	        0.0076995151	        0.2286970366	       -5.6637320559	        0.9537993877	        0.3159281712	       -3.1192487662	        0.0409270171	       -0.0773164414	        0.2775514626	
